<?xml version="1.0" encoding="utf-8"?>
<!-- Generated by IcoMoon.io -->
<svg version="1.1" xmlns="http://www.w3.org/2000/svg" xmlns:xlink="http://www.w3.org/1999/xlink" width="560" height="20" viewBox="0 0 560 20">
<svg id="icon-stopwatch" width="20" height="20" viewBox="0 0 20 20" x="0" y="0">
<path fill="#fff" d="M10 3.774v-1.274h2.5v-1.25c0-0.69-0.56-1.25-1.25-1.25h-3.75c-0.69 0-1.25 0.56-1.25 1.25v1.25h2.5v1.274c-4.195 0.319-7.5 3.824-7.5 8.101 0 4.487 3.638 8.125 8.125 8.125s8.125-3.638 8.125-8.125c0-4.277-3.305-7.782-7.5-8.101zM13.794 16.294c-1.181 1.18-2.75 1.831-4.419 1.831s-3.239-0.65-4.419-1.831c-1.18-1.18-1.831-2.75-1.831-4.419s0.65-3.239 1.831-4.419c1.134-1.134 2.626-1.778 4.221-1.827l-0.423 6.133c-0.036 0.513 0.243 0.738 0.622 0.738s0.658-0.225 0.622-0.738l-0.423-6.133c1.595 0.049 3.087 0.694 4.221 1.827 1.18 1.18 1.831 2.75 1.831 4.419s-0.65 3.239-1.831 4.419z"></path>
</svg>
<svg id="icon-user" width="20" height="20" viewBox="0 0 20 20" x="36" y="0">
<path fill="#fff" d="M11.25 13.801v-1.031c1.377-0.776 2.5-2.71 2.5-4.645 0-3.107 0-5.625-3.75-5.625s-3.75 2.518-3.75 5.625c0 1.935 1.123 3.869 2.5 4.645v1.031c-4.24 0.347-7.5 2.43-7.5 4.949h17.5c0-2.519-3.26-4.602-7.5-4.949z"></path>
</svg>
<svg id="icon-users" width="23" height="20" viewBox="0 0 23 20" x="72" y="0">
<path fill="#fff" d="M15 15.051v-1.031c1.377-0.776 2.5-2.71 2.5-4.645 0-3.107 0-5.625-3.75-5.625s-3.75 2.518-3.75 5.625c0 1.935 1.123 3.869 2.5 4.645v1.031c-4.24 0.347-7.5 2.43-7.5 4.949h17.5c0-2.519-3.26-4.602-7.5-4.949z"></path>
<path fill="#fff" d="M6.391 15.534c1.080-0.706 2.423-1.243 3.902-1.571-0.294-0.347-0.561-0.735-0.791-1.153-0.594-1.079-0.908-2.267-0.908-3.435 0-1.681 0-3.268 0.598-4.566 0.58-1.26 1.624-2.041 3.11-2.334-0.33-1.494-1.21-2.476-3.551-2.476-3.75 0-3.75 2.518-3.75 5.625 0 1.935 1.123 3.869 2.5 4.645v1.031c-4.24 0.347-7.5 2.43-7.5 4.949h5.449c0.284-0.252 0.598-0.492 0.941-0.716z"></path>
</svg>
<svg id="icon-earth" width="20" height="20" viewBox="0 0 20 20" x="108" y="0">
<path fill="#fff" d="M10 0c-5.523 0-10 4.477-10 10s4.477 10 10 10 10-4.477 10-10-4.477-10-10-10zM10 18.75c-1.23 0-2.4-0.254-3.462-0.712l4.554-5.123c0.102-0.114 0.158-0.262 0.158-0.415v-1.875c0-0.345-0.28-0.625-0.625-0.625-2.207 0-4.535-2.294-4.558-2.317-0.117-0.117-0.276-0.183-0.442-0.183h-2.5c-0.345 0-0.625 0.28-0.625 0.625v3.75c0 0.237 0.134 0.453 0.346 0.559l2.154 1.077v3.67c-2.267-1.581-3.75-4.208-3.75-7.181 0-1.342 0.303-2.613 0.843-3.75h2.282c0.166 0 0.325-0.066 0.442-0.183l2.5-2.5c0.117-0.117 0.183-0.276 0.183-0.442v-1.512c0.792-0.236 1.631-0.363 2.5-0.363 1.375 0 2.676 0.318 3.834 0.883-0.081 0.068-0.16 0.14-0.235 0.216-0.708 0.708-1.098 1.65-1.098 2.652s0.39 1.943 1.098 2.652c0.712 0.712 1.664 1.099 2.649 1.099 0.062 0 0.124-0.002 0.186-0.005 0.27 1.012 0.757 3.646-0.164 7.272-0.009 0.034-0.014 0.068-0.016 0.102-1.588 1.623-3.803 2.63-6.253 2.63z"></path>
</svg>
</svg>
